<svg xmlns="http://www.w3.org/2000/svg" width="44" height="44" viewBox="0 0 44 44" fill="none">
<g clip-path="url(#clip0_3985_46833)">
<g clip-path="url(#clip1_3985_46833)">
<g clip-path="url(#clip2_3985_46833)">
<path d="M43.1612 13.7355C43.1612 13.7355 42.7395 10.7576 41.4403 9.44998C39.7952 7.72902 37.9562 7.72058 37.1125 7.61934C31.0722 7.18066 22.0035 7.18066 22.0035 7.18066H21.9865C21.9865 7.18066 12.9177 7.18066 6.87739 7.61934C6.03378 7.72058 4.1947 7.72902 2.54966 9.44998C1.25049 10.7576 0.837117 13.7355 0.837117 13.7355C0.837117 13.7355 0.398438 17.2366 0.398438 20.7291V24.0023C0.398438 27.4949 0.828681 30.9959 0.828681 30.9959C0.828681 30.9959 1.25049 33.9739 2.54122 35.2814C4.18626 37.0024 6.34591 36.9433 7.30764 37.1289C10.7664 37.458 21.995 37.5592 21.995 37.5592C21.995 37.5592 31.0722 37.5423 37.1125 37.1121C37.9562 37.0109 39.7952 37.0024 41.4403 35.2814C42.7395 33.9739 43.1612 30.9959 43.1612 30.9959C43.1612 30.9959 43.5915 27.5033 43.5915 24.0023V20.7291C43.5915 17.2366 43.1612 13.7355 43.1612 13.7355ZM17.5323 27.9758V15.8362L29.1994 21.9271L17.5323 27.9758Z" fill="black"/>
</g>
</g>
</g>
<defs>
<clipPath id="clip0_3985_46833">
<rect width="43.193" height="43.193" fill="white" transform="translate(0.396729 0.777832)"/>
</clipPath>
<clipPath id="clip1_3985_46833">
<rect width="43.193" height="43.193" fill="white" transform="translate(0.397217 0.777588)"/>
</clipPath>
<clipPath id="clip2_3985_46833">
<rect width="43.193" height="43.193" fill="white" transform="translate(0.397705 0.777344)"/>
</clipPath>
</defs>
</svg>